<svg id="9e4770ee-dc74-47f7-974e-11e19565e904" data-name="Layer 1" xmlns="http://www.w3.org/2000/svg" viewBox="0 0 518.33 534.99"><defs><style>.a4220d34-adb4-4331-b756-bb2fc02df516{fill:#353349;}.\36 27b1d0f-0ea4-4922-8859-10b445470e82{fill:#1fe453;}.\31 07aa70e-c5bb-4a3c-ba3c-f8e03a038ace{fill:#fff;}.a593deee-99dc-40aa-98bd-aa0e8a0b1493{fill:#0c0f13;}</style></defs><title>astronaut-404</title><circle class="a4220d34-adb4-4331-b756-bb2fc02df516" cx="208.79" cy="208.79" r="208.79"/><path class="627b1d0f-0ea4-4922-8859-10b445470e82" d="M407.71,536c-117.06,0-212.29-95.23-212.29-212.29s95.23-212.28,212.29-212.28S620,206.62,620,323.67,524.76,536,407.71,536Zm0-417.57c-113.2,0-205.29,92.09-205.29,205.28S294.51,529,407.71,529,613,436.87,613,323.67,520.9,118.39,407.71,118.39Z" transform="translate(-179.95 -92.72)"/><g id="4372f408-d616-4764-a08d-974b2d9fe6a8" data-name="018---Astronaut"><path id="562d6f90-aaa2-4ace-907a-3d4660bbe95b" data-name="Shape" class="107aa70e-c5bb-4a3c-ba3c-f8e03a038ace" d="M677.93,380a28.46,28.46,0,0,0-21.33,2.13l-22.25,10.52a28.43,28.43,0,0,0-16.92-28.93L611,361a85.31,85.31,0,1,0-146.52,9.17l-20.76,4.62-18.56-37A28,28,0,0,0,408.7,323.5a14.6,14.6,0,0,0-1.85-.43V243.8a7.11,7.11,0,0,0-7.11-7.11h-69.6a10.66,10.66,0,0,0-7.53,18.2L340,272.24l-17.34,17.35a10.66,10.66,0,0,0,7.53,18.2h62.49v15.14a28.43,28.43,0,0,0-18.27,40.24L402.8,420a28.44,28.44,0,0,0,31.64,15.15l3.55-.86c-2.42,5.76-4.55,11.38-6.47,16.92a121.34,121.34,0,0,0-96.9,23.11,37.25,37.25,0,0,0-48-16.92,21.31,21.31,0,0,0-11.44,29.43l20.12,40.31a28.42,28.42,0,0,0,25.45,15.71,39.33,39.33,0,0,0,22.11-8.67,82.13,82.13,0,0,1,64-12.8,84.49,84.49,0,0,0-19.48,37.68c-19.26-9.74-38.1-6.18-50.4,13.23a21.32,21.32,0,0,0,8,30.5c42.65,22.39,43.65,24.31,53.11,24.31A28.44,28.44,0,0,0,424.13,610l3.62-8.32c15.86-44.36,69.25-45.07,71.52-45.07a41.11,41.11,0,0,0,13.58-3c13.15,6.61,20.48,12.09,33.49,8.46,32.49,25.74,69.88,26.59,97.25-6a55,55,0,0,0,12.73-45.86c-3.84-21.33-19.34-40.38-35.55-54.67a70.82,70.82,0,0,0,30.79-8.46l31.85-14.79A28.44,28.44,0,0,0,677.93,380Zm-66.47-3.2a14.22,14.22,0,0,1,7.11,19l-1.28,2.84c-6.19,0-8.46-3.34-23.18-15.49a73.33,73.33,0,0,0,8.75-10Zm-20.55-98.54a71.1,71.1,0,0,1-101.31,98.4c71.67,15.42,123.42-48.42,78.56-90.22-20-18.84-51.4-24.81-78.7-18.91a71.08,71.08,0,0,1,101.45,10.73ZM472,354.92c-.85-1.56-1.77-3.13-2.48-4.76a71.08,71.08,0,0,1,2.27-61c39.32-23.18,98.54-2.7,98.54,32.85S512.28,378.24,472,354.92ZM338.67,293.57l13.79-13.79a10.6,10.6,0,0,0,0-15.08l-13.79-13.79h54v42.66Zm92.42,128A14.23,14.23,0,0,1,415.31,414l-28.44-56.87a14.22,14.22,0,0,1,25.46-12.66l21.32,41.95a7.1,7.1,0,0,0,7.89,3.76l21.76-4.83c-5.33,8.82-11.73,20.19-18,33.13ZM335.76,522.06c-8.25,5-11.88,8-18.84,6.05a14.28,14.28,0,0,1-8.89-7l-20.12-40.53a7.11,7.11,0,0,1,3.7-9.81,23.94,23.94,0,0,1,19.41,0,32.47,32.47,0,0,1,14.22,17.21A7.11,7.11,0,0,0,336.68,491a107.22,107.22,0,0,1,90.58-26.1,172,172,0,0,0-6.62,43.58l-2,1.64c-13.65-5-45.14-11.66-82.89,11.94Zm196.93,25.53-5-2.56A68.21,68.21,0,0,0,549,500.74c3.13-21.9,17-42.66,29.57-56.88A69,69,0,0,0,593.4,451l-41.59,89.79a14.22,14.22,0,0,1-19.27,6.83Zm81.75-30A12.68,12.68,0,0,1,611,528.75c-7.11,8.6-12.51,9.59-16.14,9.59a39.17,39.17,0,0,1-21.33-9.66l19.13-41.45c12.44,11.44,20.4,22.11,21.68,30.35ZM632.86,547c-20.48,24.45-47.07,25.59-73.09,7.11a38.12,38.12,0,0,0,7.11-12.37c20.55,14.92,39,14.92,54.89-3.84,17.91-21.33-2-45.93-23.39-64l6.25-13.43c30.08,24.24,52.4,57.23,28.09,86.52ZM683.69,411.3a13.69,13.69,0,0,1-6.4,8.25l-32,14.78a56.87,56.87,0,0,1-63.2-5.68,7.1,7.1,0,0,0-9.81.71c-14.86,16.28-33.42,41.59-37.4,69.6-3.7,25.73-15.43,36.26-24.67,40.59a30.19,30.19,0,0,1-11,2.85c-2.7,0-65.69.64-84.74,54l-3.41,8a14.22,14.22,0,0,1-19.7,7.11l-39.81-21.33A7.12,7.12,0,0,1,349,579.93a22.61,22.61,0,0,1,15.21-11.58,35.52,35.52,0,0,1,23.75,8,7.11,7.11,0,0,0,11.8-4.77c6.47-64.69,92.42-78.91,93.49-78.91a7.19,7.19,0,1,0-2.13-14.22,175.84,175.84,0,0,0-55.81,20.19c3.34-38,23.1-79.62,43.65-112.18A84.9,84.9,0,0,0,583,392.25l16.78,14.22a27.72,27.72,0,0,0,22.32,6.25c4.41,0,14.22-5.19,41-17.56a14.22,14.22,0,0,1,20.48,16.14Z" transform="translate(-179.95 -92.72)"/><path id="c9deccde-755b-4636-ad37-9d6cb9f46168" data-name="Shape" class="107aa70e-c5bb-4a3c-ba3c-f8e03a038ace" d="M520.6,293.57a7.11,7.11,0,0,0-7.11-7.11c-14.79,0-42.65,7.11-42.65,35.55a7.11,7.11,0,1,0,14.21,0c0-20.91,27.16-21.33,28.44-21.33A7.11,7.11,0,0,0,520.6,293.57Z" transform="translate(-179.95 -92.72)"/><path id="8299b2ac-af5d-40a7-b230-24bd7332c921" data-name="Shape" class="107aa70e-c5bb-4a3c-ba3c-f8e03a038ace" d="M321.54,364.66a7.11,7.11,0,0,0-7.11,7.11v7.11h-7.11a7.11,7.11,0,1,0,0,14.22h7.11v7.11a7.11,7.11,0,0,0,14.22,0V393.1h7.11a7.11,7.11,0,0,0,0-14.22h-7.11v-7.11A7.11,7.11,0,0,0,321.54,364.66Z" transform="translate(-179.95 -92.72)"/><path id="25f454e3-46d1-4b1f-91f3-4f1a1fe26869" data-name="Shape" class="107aa70e-c5bb-4a3c-ba3c-f8e03a038ace" d="M513.49,599.27h-7.11v-7.11a7.11,7.11,0,1,0-14.22,0v7.11h-7.11a7.11,7.11,0,1,0,0,14.22h7.11v7.11a7.11,7.11,0,0,0,14.22,0v-7.11h7.11a7.11,7.11,0,1,0,0-14.22Z" transform="translate(-179.95 -92.72)"/><path id="48e1975e-01da-459d-b0c9-6f67c621da47" data-name="Shape" class="107aa70e-c5bb-4a3c-ba3c-f8e03a038ace" d="M648.57,279.35a7.11,7.11,0,0,0,7.11-7.11v-7.11h7.11a7.11,7.11,0,1,0,0-14.22h-7.11V243.8a7.11,7.11,0,1,0-14.22,0v7.11h-7.11a7.11,7.11,0,0,0,0,14.22h7.11v7.11A7.11,7.11,0,0,0,648.57,279.35Z" transform="translate(-179.95 -92.72)"/></g><circle class="a593deee-99dc-40aa-98bd-aa0e8a0b1493" cx="241.45" cy="106.45" r="11.03"/><circle class="a593deee-99dc-40aa-98bd-aa0e8a0b1493" cx="158.72" cy="65.42" r="11.03"/><circle class="a593deee-99dc-40aa-98bd-aa0e8a0b1493" cx="86.25" cy="316.96" r="11.03"/><circle class="a593deee-99dc-40aa-98bd-aa0e8a0b1493" cx="89.49" cy="152.38" r="20.11"/><circle class="a593deee-99dc-40aa-98bd-aa0e8a0b1493" cx="297.99" cy="109.08" r="20.81"/></svg>